<svg xmlns="http://www.w3.org/2000/svg" viewBox="0 0 24 24" fill="currentColor">
  <path d="M18,18.5A1.5,1.5 0 0,1 16.5,17A1.5,1.5 0 0,1 18,15.5A1.5,1.5 0 0,1 19.5,17A1.5,1.5 0 0,1 18,18.5M19.5,9.5L21.46,12H17V9.5H19.5M6,18.5A1.5,1.5 0 0,1 4.5,17A1.5,1.5 0 0,1 6,15.5A1.5,1.5 0 0,1 7.5,17A1.5,1.5 0 0,1 6,18.5M20,8H17V4H3C1.89,4 1,4.89 1,6V17H3A3,3 0 0,0 6,20A3,3 0 0,0 9,17H15A3,3 0 0,0 18,20A3,3 0 0,0 21,17H23V12L20,8M3,6H15V15H3V6M15,7H16V9H15V7M17,7H18V9H17V7M15,10H16V12H15V10M17,10H18V12H17V10M5,8H7V10H5V8M8,8H10V10H8V8M11,8H13V10H11V8M5,11H7V13H5V11M8,11H10V13H8V11M11,11H13V13H11V11Z"/>
</svg>
