<svg xmlns="http://www.w3.org/2000/svg" viewBox="0 0 24 24" fill="currentColor">
  <path d="M18 18.5C18 19.33 17.33 20 16.5 20C15.67 20 15 19.33 15 18.5C15 17.67 15.67 17 16.5 17C17.33 17 18 17.67 18 18.5ZM7.5 17C8.33 17 9 17.67 9 18.5C9 19.33 8.33 20 7.5 20C6.67 20 6 19.33 6 18.5C6 17.67 6.67 17 7.5 17ZM20 8H17V4H3C1.9 4 1 4.9 1 6V15H3C3 16.66 4.34 18 6 18C7.66 18 9 16.66 9 15H15C15 16.66 16.34 18 18 18C19.66 18 21 16.66 21 15H23V12L20 8ZM3 6H15V13H3V6ZM19.5 9.5L21.46 12H17V9.5H19.5Z"/>
</svg>
